<?xml version="1.0"?>
<svg width="67" height="200" xmlns="http://www.w3.org/2000/svg" xmlns:svg="http://www.w3.org/2000/svg" version="1.1">
 <g class="layer">
  <title>Layer 1</title>
  <g id="svg_3">
   <circle cx="44.74" cy="94.31" fill="#3d0eaf" id="svg_4" r="5.15"/>
   <circle cx="22.62" cy="94.31" fill="#3d0eaf" id="svg_5" r="5.15"/>
   <circle cx="33.68" cy="105.17" fill="#3d0eaf" id="svg_6" r="4.2"/>
   <circle cx="44.74" cy="116.03" fill="#3d0eaf" id="svg_7" r="3.29"/>
   <circle cx="55.8" cy="105.17" fill="#3d0eaf" id="svg_8" r="4.2"/>
   <circle cx="66.86" cy="94.31" fill="#3d0eaf" id="svg_9" r="5.15"/>
   <circle cx="55.8" cy="83.45" fill="#3d0eaf" id="svg_10" r="6.1"/>
   <circle cx="44.74" cy="72.58" fill="#3d0eaf" id="svg_11" r="7.06"/>
   <circle cx="33.68" cy="83.45" fill="#3d0eaf" id="svg_12" r="6.1"/>
   <circle cx="0.5" cy="94.31" fill="#3d0eaf" id="svg_13" r="5.15"/>
   <circle cx="11.56" cy="105.17" fill="#3d0eaf" id="svg_14" r="4.2"/>
   <circle cx="22.62" cy="116.03" fill="#3d0eaf" id="svg_15" r="3.29"/>
   <circle cx="33.68" cy="126.9" fill="#3d0eaf" id="svg_16" r="2.39"/>
   <circle cx="44.74" cy="137.76" fill="#3d0eaf" id="svg_17" r="1.57"/>
   <circle cx="55.8" cy="126.9" fill="#3d0eaf" id="svg_18" r="2.39"/>
   <circle cx="66.86" cy="116.03" fill="#3d0eaf" id="svg_19" r="3.29"/>
   <circle cx="77.93" cy="105.17" fill="#3d0eaf" id="svg_20" r="4.2"/>
   <circle cx="88.99" cy="94.31" fill="#3d0eaf" id="svg_21" r="5.15"/>
   <circle cx="77.93" cy="83.45" fill="#3d0eaf" id="svg_22" r="6.1"/>
   <circle cx="66.86" cy="72.58" fill="#3d0eaf" id="svg_23" r="7.06"/>
   <circle cx="55.8" cy="61.72" fill="#3d0eaf" id="svg_24" r="8.01"/>
   <circle cx="44.74" cy="50.86" fill="#3d0eaf" id="svg_25" r="8.82"/>
   <circle cx="33.68" cy="61.72" fill="#3d0eaf" id="svg_26" r="7.92"/>
   <circle cx="22.62" cy="72.58" fill="#3d0eaf" id="svg_27" r="7.06"/>
   <circle cx="11.56" cy="83.45" fill="#3d0eaf" id="svg_28" r="6.1"/>
   <circle cx="0.5" cy="116.03" fill="#3d0eaf" id="svg_29" r="3.29"/>
   <circle cx="11.56" cy="126.9" fill="#3d0eaf" id="svg_30" r="2.39"/>
   <circle cx="22.62" cy="137.76" fill="#3d0eaf" id="svg_31" r="1.57"/>
   <circle cx="33.68" cy="148.62" fill="#3d0eaf" id="svg_32" r="0.85"/>
   <circle cx="55.8" cy="148.62" fill="#3d0eaf" id="svg_33" r="0.85"/>
   <circle cx="66.86" cy="137.76" fill="#3d0eaf" id="svg_34" r="1.57"/>
   <circle cx="77.93" cy="126.9" fill="#3d0eaf" id="svg_35" r="2.39"/>
   <circle cx="88.99" cy="116.03" fill="#3d0eaf" id="svg_36" r="3.29"/>
   <circle cx="88.99" cy="72.58" fill="#3d0eaf" id="svg_37" r="7.06"/>
   <circle cx="77.93" cy="61.72" fill="#3d0eaf" id="svg_38" r="8.01"/>
   <circle cx="66.86" cy="50.86" fill="#3d0eaf" id="svg_39" r="8.82"/>
   <circle cx="55.8" cy="40" fill="#3d0eaf" id="svg_40" r="9.46"/>
   <circle cx="44.74" cy="29.13" fill="#3d0eaf" id="svg_41" r="10.09"/>
   <circle cx="33.68" cy="40" fill="#3d0eaf" id="svg_42" r="9.46"/>
   <circle cx="22.62" cy="50.86" fill="#3d0eaf" id="svg_43" r="8.73"/>
   <circle cx="11.56" cy="61.72" fill="#3d0eaf" id="svg_44" r="7.92"/>
   <circle cx="0.5" cy="72.58" fill="#3d0eaf" id="svg_45" r="7.06"/>
   <circle cx="0.5" cy="137.76" fill="#3d0eaf" id="svg_46" r="1.57"/>
   <circle cx="11.56" cy="148.62" fill="#3d0eaf" id="svg_47" r="0.85"/>
   <circle cx="77.93" cy="148.62" fill="#3d0eaf" id="svg_48" r="0.85"/>
   <circle cx="88.99" cy="137.76" fill="#3d0eaf" id="svg_49" r="1.57"/>
   <circle cx="88.99" cy="50.86" fill="#3d0eaf" id="svg_50" r="8.82"/>
   <circle cx="77.93" cy="40" fill="#3d0eaf" id="svg_51" r="9.5"/>
   <circle cx="66.86" cy="29.13" fill="#3d0eaf" id="svg_52" r="10.14"/>
   <circle cx="55.8" cy="18.27" fill="#3d0eaf" id="svg_53" r="10.64"/>
   <circle cx="44.74" cy="7.41" fill="#3d0eaf" id="svg_54" r="10.86"/>
   <circle cx="33.68" cy="18.27" fill="#3d0eaf" id="svg_55" r="10.59"/>
   <circle cx="22.62" cy="29.13" fill="#3d0eaf" id="svg_56" r="10.09"/>
   <circle cx="11.56" cy="40" fill="#3d0eaf" id="svg_57" r="9.46"/>
   <circle cx="0.5" cy="50.86" fill="#3d0eaf" id="svg_58" r="8.73"/>
   <circle cx="88.99" cy="29.13" fill="#3d0eaf" id="svg_59" r="10.09"/>
   <circle cx="77.93" cy="18.27" fill="#3d0eaf" id="svg_60" r="10.59"/>
   <circle cx="66.86" cy="7.41" fill="#3d0eaf" id="svg_61" r="10.86"/>
   <circle cx="55.8" cy="-3.46" fill="#3d0eaf" id="svg_62" r="10.86"/>
   <circle cx="33.68" cy="-3.46" fill="#3d0eaf" id="svg_63" r="10.86"/>
   <circle cx="22.62" cy="7.41" fill="#3d0eaf" id="svg_64" r="10.86"/>
   <circle cx="11.56" cy="18.27" fill="#3d0eaf" id="svg_65" r="10.59"/>
   <circle cx="0.5" cy="29.13" fill="#3d0eaf" id="svg_66" r="10.09"/>
   <circle cx="88.99" cy="7.41" fill="#3d0eaf" id="svg_67" r="10.86"/>
   <circle cx="77.93" cy="-3.46" fill="#3d0eaf" id="svg_68" r="10.86"/>
   <circle cx="11.56" cy="-3.46" fill="#3d0eaf" id="svg_69" r="10.86"/>
   <circle cx="0.5" cy="7.41" fill="#3d0eaf" id="svg_70" r="10.86"/>
  </g>
 </g>
</svg>