<?xml version="1.0" encoding="UTF-8" standalone="no"?>
<svg version="1.1" xmlns="http://www.w3.org/2000/svg" width="1100px" height="619px" x="0" y="0" viewBox="0 0 1100 619"><g><rect fill="#ffffff" x="0" y="0" width="1100" height="619"/></g><g><circle cx="550" cy="309.5" r="14.584075306250874" fill="#000000" fill-opacity="1"/><circle cx="460" cy="309.5" r="14.584075306250874" fill="#000000" fill-opacity="1"/><circle cx="505" cy="354.5" r="10.373524432888736" fill="#000000" fill-opacity="1"/><circle cx="550" cy="399.5" r="6.921157829123508" fill="#000000" fill-opacity="1"/><circle cx="595" cy="354.5" r="10.373524432888736" fill="#000000" fill-opacity="1"/><circle cx="640" cy="309.5" r="14.584075306250874" fill="#000000" fill-opacity="1"/><circle cx="595" cy="264.5" r="19.206331003259375" fill="#000000" fill-opacity="1"/><circle cx="550" cy="219.5" r="24.20704875226355" fill="#000000" fill-opacity="1"/><circle cx="505" cy="264.5" r="19.206331003259375" fill="#000000" fill-opacity="1"/><circle cx="370" cy="309.5" r="14.584075306250874" fill="#000000" fill-opacity="1"/><circle cx="415" cy="354.5" r="10.373524432888736" fill="#000000" fill-opacity="1"/><circle cx="460" cy="399.5" r="6.921157829123508" fill="#000000" fill-opacity="1"/><circle cx="505" cy="444.5" r="4.101319872564669" fill="#000000" fill-opacity="1"/><circle cx="550" cy="489.5" r="2.0596028624161375" fill="#000000" fill-opacity="1"/><circle cx="595" cy="444.5" r="4.101319872564669" fill="#000000" fill-opacity="1"/><circle cx="640" cy="399.5" r="6.921157829123508" fill="#000000" fill-opacity="1"/><circle cx="685" cy="354.5" r="10.373524432888736" fill="#000000" fill-opacity="1"/><circle cx="730" cy="309.5" r="14.584075306250874" fill="#000000" fill-opacity="1"/><circle cx="685" cy="264.5" r="19.206331003259375" fill="#000000" fill-opacity="1"/><circle cx="640" cy="219.5" r="24.20704875226355" fill="#000000" fill-opacity="1"/><circle cx="595" cy="174.5" r="29.400202130076725" fill="#000000" fill-opacity="1"/><circle cx="550" cy="129.5" r="34.1116416158038" fill="#000000" fill-opacity="1"/><circle cx="505" cy="174.5" r="29.400202130076725" fill="#000000" fill-opacity="1"/><circle cx="460" cy="219.5" r="24.20704875226355" fill="#000000" fill-opacity="1"/><circle cx="415" cy="264.5" r="19.206331003259375" fill="#000000" fill-opacity="1"/><circle cx="280" cy="309.5" r="14.584075306250874" fill="#000000" fill-opacity="1"/><circle cx="325" cy="354.5" r="10.373524432888736" fill="#000000" fill-opacity="1"/><circle cx="370" cy="399.5" r="6.921157829123508" fill="#000000" fill-opacity="1"/><circle cx="415" cy="444.5" r="4.101319872564669" fill="#000000" fill-opacity="1"/><circle cx="460" cy="489.5" r="2.0596028624161375" fill="#000000" fill-opacity="1"/><circle cx="505" cy="534.5" r="0.7491460481050755" fill="#000000" fill-opacity="1"/><circle cx="550" cy="579.5" r="0.07625431322705045" fill="#000000" fill-opacity="1"/><circle cx="595" cy="534.5" r="0.7491460481050755" fill="#000000" fill-opacity="1"/><circle cx="640" cy="489.5" r="2.0596028624161375" fill="#000000" fill-opacity="1"/><circle cx="685" cy="444.5" r="4.101319872564669" fill="#000000" fill-opacity="1"/><circle cx="730" cy="399.5" r="6.921157829123508" fill="#000000" fill-opacity="1"/><circle cx="775" cy="354.5" r="10.373524432888736" fill="#000000" fill-opacity="1"/><circle cx="820" cy="309.5" r="14.584075306250874" fill="#000000" fill-opacity="1"/><circle cx="775" cy="264.5" r="19.206331003259375" fill="#000000" fill-opacity="1"/><circle cx="730" cy="219.49999999999997" r="24.20704875226355" fill="#000000" fill-opacity="1"/><circle cx="685" cy="174.49999999999997" r="29.400202130076725" fill="#000000" fill-opacity="1"/><circle cx="640" cy="129.49999999999997" r="34.1116416158038" fill="#000000" fill-opacity="1"/><circle cx="595" cy="84.49999999999997" r="38.687051404818" fill="#000000" fill-opacity="1"/><circle cx="550" cy="39.5" r="42.66768447062267" fill="#000000" fill-opacity="1"/><circle cx="505" cy="84.5" r="38.687051404818" fill="#000000" fill-opacity="1"/><circle cx="460" cy="129.5" r="34.1116416158038" fill="#000000" fill-opacity="1"/><circle cx="415" cy="174.5" r="29.400202130076725" fill="#000000" fill-opacity="1"/><circle cx="370" cy="219.5" r="24.20704875226355" fill="#000000" fill-opacity="1"/><circle cx="325" cy="264.5" r="19.206331003259375" fill="#000000" fill-opacity="1"/><circle cx="190" cy="309.5" r="14.584075306250874" fill="#000000" fill-opacity="1"/><circle cx="235" cy="354.5" r="10.373524432888736" fill="#000000" fill-opacity="1"/><circle cx="280" cy="399.5" r="6.921157829123508" fill="#000000" fill-opacity="1"/><circle cx="325" cy="444.5" r="4.101319872564669" fill="#000000" fill-opacity="1"/><circle cx="370" cy="489.5" r="2.0596028624161375" fill="#000000" fill-opacity="1"/><circle cx="415" cy="534.5" r="0.7491460481050755" fill="#000000" fill-opacity="1"/><circle cx="460" cy="579.5" r="0.07625431322705045" fill="#000000" fill-opacity="1"/><circle cx="640" cy="579.5" r="0.07625431322705045" fill="#000000" fill-opacity="1"/><circle cx="685" cy="534.5" r="0.7491460481050755" fill="#000000" fill-opacity="1"/><circle cx="730" cy="489.5" r="2.0596028624161375" fill="#000000" fill-opacity="1"/><circle cx="775" cy="444.5" r="4.101319872564669" fill="#000000" fill-opacity="1"/><circle cx="820" cy="399.5" r="6.921157829123508" fill="#000000" fill-opacity="1"/><circle cx="865" cy="354.5" r="10.373524432888736" fill="#000000" fill-opacity="1"/><circle cx="910" cy="309.5" r="14.584075306250874" fill="#000000" fill-opacity="1"/><circle cx="865" cy="264.5" r="19.206331003259375" fill="#000000" fill-opacity="1"/><circle cx="820" cy="219.49999999999997" r="24.20704875226355" fill="#000000" fill-opacity="1"/><circle cx="775" cy="174.49999999999997" r="29.400202130076725" fill="#000000" fill-opacity="1"/><circle cx="730" cy="129.49999999999997" r="34.1116416158038" fill="#000000" fill-opacity="1"/><circle cx="685" cy="84.49999999999997" r="38.687051404818" fill="#000000" fill-opacity="1"/><circle cx="640" cy="39.5" r="42.66768447062267" fill="#000000" fill-opacity="1"/><circle cx="595" cy="-5.5" r="45" fill="#000000" fill-opacity="1"/><circle cx="550" cy="-50.5" r="45" fill="#000000" fill-opacity="1"/><circle cx="505" cy="-5.5" r="45" fill="#000000" fill-opacity="1"/><circle cx="460" cy="39.5" r="42.66768447062267" fill="#000000" fill-opacity="1"/><circle cx="415" cy="84.5" r="38.687051404818" fill="#000000" fill-opacity="1"/><circle cx="370" cy="129.5" r="34.1116416158038" fill="#000000" fill-opacity="1"/><circle cx="325" cy="174.5" r="29.400202130076725" fill="#000000" fill-opacity="1"/><circle cx="280" cy="219.5" r="24.20704875226355" fill="#000000" fill-opacity="1"/><circle cx="235" cy="264.5" r="19.206331003259375" fill="#000000" fill-opacity="1"/><circle cx="100" cy="309.5" r="14.584075306250874" fill="#000000" fill-opacity="1"/><circle cx="145" cy="354.5" r="10.373524432888736" fill="#000000" fill-opacity="1"/><circle cx="190" cy="399.5" r="6.921157829123508" fill="#000000" fill-opacity="1"/><circle cx="235" cy="444.5" r="4.101319872564669" fill="#000000" fill-opacity="1"/><circle cx="280" cy="489.5" r="2.0596028624161375" fill="#000000" fill-opacity="1"/><circle cx="325" cy="534.5" r="0.7491460481050755" fill="#000000" fill-opacity="1"/><circle cx="370" cy="579.5" r="0.07625431322705045" fill="#000000" fill-opacity="1"/><circle cx="730" cy="579.5" r="0.07625431322705045" fill="#000000" fill-opacity="1"/><circle cx="775" cy="534.5" r="0.7491460481050755" fill="#000000" fill-opacity="1"/><circle cx="820" cy="489.5" r="2.0596028624161375" fill="#000000" fill-opacity="1"/><circle cx="865" cy="444.5" r="4.101319872564669" fill="#000000" fill-opacity="1"/><circle cx="910" cy="399.5" r="6.921157829123508" fill="#000000" fill-opacity="1"/><circle cx="955" cy="354.5" r="10.373524432888736" fill="#000000" fill-opacity="1"/><circle cx="1000" cy="309.5" r="14.584075306250874" fill="#000000" fill-opacity="1"/><circle cx="955" cy="264.5" r="19.206331003259375" fill="#000000" fill-opacity="1"/><circle cx="910" cy="219.49999999999997" r="24.20704875226355" fill="#000000" fill-opacity="1"/><circle cx="865" cy="174.49999999999997" r="29.400202130076725" fill="#000000" fill-opacity="1"/><circle cx="820" cy="129.49999999999997" r="34.1116416158038" fill="#000000" fill-opacity="1"/><circle cx="775" cy="84.49999999999997" r="38.687051404818" fill="#000000" fill-opacity="1"/><circle cx="730" cy="39.5" r="42.66768447062267" fill="#000000" fill-opacity="1"/><circle cx="685" cy="-5.5" r="45" fill="#000000" fill-opacity="1"/><circle cx="640" cy="-50.5" r="45" fill="#000000" fill-opacity="1"/><circle cx="460" cy="-50.5" r="45" fill="#000000" fill-opacity="1"/><circle cx="415" cy="-5.5" r="45" fill="#000000" fill-opacity="1"/><circle cx="370" cy="39.5" r="42.66768447062267" fill="#000000" fill-opacity="1"/><circle cx="325" cy="84.5" r="38.687051404818" fill="#000000" fill-opacity="1"/><circle cx="280" cy="129.5" r="34.1116416158038" fill="#000000" fill-opacity="1"/><circle cx="235" cy="174.5" r="29.400202130076725" fill="#000000" fill-opacity="1"/><circle cx="190" cy="219.50000000000003" r="24.20704875226355" fill="#000000" fill-opacity="1"/><circle cx="145" cy="264.5" r="19.206331003259375" fill="#000000" fill-opacity="1"/><circle cx="10" cy="309.50000000000006" r="14.584075306250874" fill="#000000" fill-opacity="1"/><circle cx="55" cy="354.50000000000006" r="10.373524432888736" fill="#000000" fill-opacity="1"/><circle cx="100" cy="399.50000000000006" r="6.921157829123508" fill="#000000" fill-opacity="1"/><circle cx="145" cy="444.50000000000006" r="4.101319872564669" fill="#000000" fill-opacity="1"/><circle cx="190" cy="489.50000000000006" r="2.0596028624161375" fill="#000000" fill-opacity="1"/><circle cx="235" cy="534.5" r="0.7491460481050755" fill="#000000" fill-opacity="1"/><circle cx="280" cy="579.5" r="0.07625431322705045" fill="#000000" fill-opacity="1"/><circle cx="820" cy="579.5" r="0.07625431322705045" fill="#000000" fill-opacity="1"/><circle cx="865" cy="534.5" r="0.7491460481050755" fill="#000000" fill-opacity="1"/><circle cx="910" cy="489.5" r="2.0596028624161375" fill="#000000" fill-opacity="1"/><circle cx="955" cy="444.5" r="4.101319872564669" fill="#000000" fill-opacity="1"/><circle cx="1000" cy="399.5" r="6.921157829123508" fill="#000000" fill-opacity="1"/><circle cx="1045" cy="354.5" r="10.373524432888736" fill="#000000" fill-opacity="1"/><circle cx="1090" cy="309.49999999999994" r="14.584075306250874" fill="#000000" fill-opacity="1"/><circle cx="1045" cy="264.49999999999994" r="19.206331003259375" fill="#000000" fill-opacity="1"/><circle cx="1000" cy="219.49999999999994" r="24.20704875226355" fill="#000000" fill-opacity="1"/><circle cx="955" cy="174.49999999999994" r="29.400202130076725" fill="#000000" fill-opacity="1"/><circle cx="910" cy="129.49999999999994" r="34.1116416158038" fill="#000000" fill-opacity="1"/><circle cx="865" cy="84.49999999999994" r="38.687051404818" fill="#000000" fill-opacity="1"/><circle cx="820" cy="39.49999999999994" r="42.66768447062267" fill="#000000" fill-opacity="1"/><circle cx="775" cy="-5.500000000000057" r="45" fill="#000000" fill-opacity="1"/><circle cx="730" cy="-50.50000000000006" r="45" fill="#000000" fill-opacity="1"/><circle cx="369.99999999999994" cy="-50.5" r="45" fill="#000000" fill-opacity="1"/><circle cx="324.99999999999994" cy="-5.5" r="45" fill="#000000" fill-opacity="1"/><circle cx="279.99999999999994" cy="39.5" r="42.66768447062267" fill="#000000" fill-opacity="1"/><circle cx="234.99999999999994" cy="84.5" r="38.687051404818" fill="#000000" fill-opacity="1"/><circle cx="189.99999999999994" cy="129.5" r="34.1116416158038" fill="#000000" fill-opacity="1"/><circle cx="144.99999999999994" cy="174.50000000000003" r="29.400202130076725" fill="#000000" fill-opacity="1"/><circle cx="99.99999999999994" cy="219.50000000000003" r="24.20704875226355" fill="#000000" fill-opacity="1"/><circle cx="54.99999999999994" cy="264.5" r="19.206331003259375" fill="#000000" fill-opacity="1"/><circle cx="-80" cy="309.50000000000006" r="14.584075306250874" fill="#000000" fill-opacity="1"/><circle cx="-35" cy="354.50000000000006" r="10.373524432888736" fill="#000000" fill-opacity="1"/><circle cx="10" cy="399.50000000000006" r="6.921157829123508" fill="#000000" fill-opacity="1"/><circle cx="55" cy="444.50000000000006" r="4.101319872564669" fill="#000000" fill-opacity="1"/><circle cx="100" cy="489.50000000000006" r="2.0596028624161375" fill="#000000" fill-opacity="1"/><circle cx="145" cy="534.5" r="0.7491460481050755" fill="#000000" fill-opacity="1"/><circle cx="190" cy="579.5" r="0.07625431322705045" fill="#000000" fill-opacity="1"/><circle cx="910" cy="579.5" r="0.07625431322705045" fill="#000000" fill-opacity="1"/><circle cx="955" cy="534.5" r="0.7491460481050755" fill="#000000" fill-opacity="1"/><circle cx="1000" cy="489.5" r="2.0596028624161375" fill="#000000" fill-opacity="1"/><circle cx="1045" cy="444.5" r="4.101319872564669" fill="#000000" fill-opacity="1"/><circle cx="1090" cy="399.5" r="6.921157829123508" fill="#000000" fill-opacity="1"/><circle cx="1135" cy="354.49999999999994" r="10.373524432888736" fill="#000000" fill-opacity="1"/><circle cx="1180" cy="309.49999999999994" r="14.584075306250874" fill="#000000" fill-opacity="1"/><circle cx="1135" cy="264.49999999999994" r="19.206331003259375" fill="#000000" fill-opacity="1"/><circle cx="1090" cy="219.49999999999994" r="24.20704875226355" fill="#000000" fill-opacity="1"/><circle cx="1045" cy="174.49999999999994" r="29.400202130076725" fill="#000000" fill-opacity="1"/><circle cx="1000" cy="129.49999999999994" r="34.1116416158038" fill="#000000" fill-opacity="1"/><circle cx="955" cy="84.49999999999994" r="38.687051404818" fill="#000000" fill-opacity="1"/><circle cx="910" cy="39.49999999999994" r="42.66768447062267" fill="#000000" fill-opacity="1"/><circle cx="865" cy="-5.500000000000057" r="45" fill="#000000" fill-opacity="1"/><circle cx="820" cy="-50.50000000000006" r="45" fill="#000000" fill-opacity="1"/><circle cx="279.99999999999994" cy="-50.5" r="45" fill="#000000" fill-opacity="1"/><circle cx="234.99999999999994" cy="-5.5" r="45" fill="#000000" fill-opacity="1"/><circle cx="189.99999999999994" cy="39.5" r="42.66768447062267" fill="#000000" fill-opacity="1"/><circle cx="144.99999999999994" cy="84.5" r="38.687051404818" fill="#000000" fill-opacity="1"/><circle cx="99.99999999999994" cy="129.50000000000003" r="34.1116416158038" fill="#000000" fill-opacity="1"/><circle cx="54.99999999999994" cy="174.50000000000003" r="29.400202130076725" fill="#000000" fill-opacity="1"/><circle cx="10" cy="219.50000000000003" r="24.20704875226355" fill="#000000" fill-opacity="1"/><circle cx="-35" cy="264.50000000000006" r="19.206331003259375" fill="#000000" fill-opacity="1"/><circle cx="-80" cy="399.50000000000006" r="6.921157829123508" fill="#000000" fill-opacity="1"/><circle cx="-35" cy="444.50000000000006" r="4.101319872564669" fill="#000000" fill-opacity="1"/><circle cx="10" cy="489.50000000000006" r="2.0596028624161375" fill="#000000" fill-opacity="1"/><circle cx="55" cy="534.5" r="0.7491460481050755" fill="#000000" fill-opacity="1"/><circle cx="100" cy="579.5" r="0.07625431322705045" fill="#000000" fill-opacity="1"/><circle cx="1000" cy="579.5" r="0.07625431322705045" fill="#000000" fill-opacity="1"/><circle cx="1045" cy="534.5" r="0.7491460481050755" fill="#000000" fill-opacity="1"/><circle cx="1090" cy="489.5" r="2.0596028624161375" fill="#000000" fill-opacity="1"/><circle cx="1135" cy="444.5" r="4.101319872564669" fill="#000000" fill-opacity="1"/><circle cx="1180" cy="399.49999999999994" r="6.921157829123508" fill="#000000" fill-opacity="1"/><circle cx="1180" cy="219.49999999999994" r="24.20704875226355" fill="#000000" fill-opacity="1"/><circle cx="1135" cy="174.49999999999994" r="29.400202130076725" fill="#000000" fill-opacity="1"/><circle cx="1090" cy="129.49999999999994" r="34.1116416158038" fill="#000000" fill-opacity="1"/><circle cx="1045" cy="84.49999999999994" r="38.687051404818" fill="#000000" fill-opacity="1"/><circle cx="1000" cy="39.49999999999994" r="42.66768447062267" fill="#000000" fill-opacity="1"/><circle cx="955" cy="-5.500000000000057" r="45" fill="#000000" fill-opacity="1"/><circle cx="910" cy="-50.50000000000006" r="45" fill="#000000" fill-opacity="1"/><circle cx="189.99999999999994" cy="-50.5" r="45" fill="#000000" fill-opacity="1"/><circle cx="144.99999999999994" cy="-5.5" r="45" fill="#000000" fill-opacity="1"/><circle cx="99.99999999999994" cy="39.5" r="42.66768447062267" fill="#000000" fill-opacity="1"/><circle cx="54.99999999999994" cy="84.50000000000003" r="38.687051404818" fill="#000000" fill-opacity="1"/><circle cx="10" cy="129.50000000000003" r="34.1116416158038" fill="#000000" fill-opacity="1"/><circle cx="-35" cy="174.50000000000003" r="29.400202130076725" fill="#000000" fill-opacity="1"/><circle cx="-80" cy="219.50000000000006" r="24.20704875226355" fill="#000000" fill-opacity="1"/><circle cx="-80" cy="489.50000000000006" r="2.0596028624161375" fill="#000000" fill-opacity="1"/><circle cx="-35" cy="534.5" r="0.7491460481050755" fill="#000000" fill-opacity="1"/><circle cx="10" cy="579.5" r="0.07625431322705045" fill="#000000" fill-opacity="1"/><circle cx="1090" cy="579.5" r="0.07625431322705045" fill="#000000" fill-opacity="1"/><circle cx="1135" cy="534.5" r="0.7491460481050755" fill="#000000" fill-opacity="1"/><circle cx="1180" cy="489.5" r="2.0596028624161375" fill="#000000" fill-opacity="1"/><circle cx="1180" cy="129.49999999999994" r="34.1116416158038" fill="#000000" fill-opacity="1"/><circle cx="1135" cy="84.49999999999994" r="38.687051404818" fill="#000000" fill-opacity="1"/><circle cx="1090" cy="39.49999999999994" r="42.66768447062267" fill="#000000" fill-opacity="1"/><circle cx="1045" cy="-5.500000000000057" r="45" fill="#000000" fill-opacity="1"/><circle cx="1000" cy="-50.50000000000006" r="45" fill="#000000" fill-opacity="1"/><circle cx="99.99999999999994" cy="-50.5" r="45" fill="#000000" fill-opacity="1"/><circle cx="54.99999999999994" cy="-5.5" r="45" fill="#000000" fill-opacity="1"/><circle cx="10" cy="39.5" r="42.66768447062267" fill="#000000" fill-opacity="1"/><circle cx="-35" cy="84.50000000000003" r="38.687051404818" fill="#000000" fill-opacity="1"/><circle cx="-80" cy="129.50000000000003" r="34.1116416158038" fill="#000000" fill-opacity="1"/><circle cx="-80" cy="579.5" r="0.07625431322705045" fill="#000000" fill-opacity="1"/><circle cx="1180" cy="579.5" r="0.07625431322705045" fill="#000000" fill-opacity="1"/><circle cx="1180" cy="39.49999999999994" r="42.66768447062267" fill="#000000" fill-opacity="1"/><circle cx="1135" cy="-5.500000000000057" r="45" fill="#000000" fill-opacity="1"/><circle cx="1090" cy="-50.50000000000006" r="45" fill="#000000" fill-opacity="1"/><circle cx="10" cy="-50.5" r="45" fill="#000000" fill-opacity="1"/><circle cx="-35" cy="-5.5" r="45" fill="#000000" fill-opacity="1"/><circle cx="-80" cy="39.5" r="42.66768447062267" fill="#000000" fill-opacity="1"/><circle cx="1180" cy="-50.500000000000114" r="45" fill="#000000" fill-opacity="1"/><circle cx="-80.00000000000011" cy="-50.5" r="45" fill="#000000" fill-opacity="1"/></g></svg>